<svg width="193" height="193" fill="none" viewBox="0 0 193 193" xmlns="http://www.w3.org/2000/svg">
  <circle cx="96.5" cy="96.5" r="96.5" fill="url(#1_guni_dai_usdc_1_icon_e7f11f6d-2640-4c9b-9e5e-a87bf01b0078)"/>
  <path d="M136.775 77l-.516 1.754v50.883l.516.515 23.619-13.961L136.775 77z" fill="#DEDEDE"/>
  <path d="M136.778 77l-23.62 39.191 23.62 13.961V77z" fill="#fff"/>
  <path d="M136.777 134.626l-.291.354v18.126l.291.849 23.633-33.283-23.633 13.954z" fill="#DEDEDE"/>
  <path d="M136.778 153.955v-19.329l-23.62-13.955 23.62 33.284z" fill="#fff"/>
  <path d="M136.78 130.152l23.619-13.961-23.619-10.736v24.697z" fill="#BDBDBD"/>
  <path d="M113.158 116.191l23.619 13.962v-24.698l-23.619 10.736z" fill="#DEDEDE"/>
  <mask id="a" style="mask-type:alpha" maskUnits="userSpaceOnUse" x="-1" y="-1" width="146" height="182">
    <path d="M48.25 180.071A96.498 96.498 0 0171.524 3.288a96.5 96.5 0 0173.226 9.64L96.5 96.5l-48.25 83.571z" fill="#C4C4C4"/>
  </mask>
  <g mask="url(#a)">
    <circle cx="96.5" cy="96.5" r="96.5" transform="rotate(-180 96.5 96.5)" fill="url(#2_guni_dai_usdc_1_icon_e7f11f6d-2640-4c9b-9e5e-a87bf01b0078)"/>
    <path opacity=".9" fill-rule="evenodd" clip-rule="evenodd" d="M38.88 50.688c0 7.813-.008 8.698-.09 8.788-.079.088-.47.1-3.44.1H32v6.24h3.35c2.97 0 3.361.011 3.44.1.08.088.09.468.09 3.211 0 2.744-.01 3.123-.09 3.212-.079.088-.47.1-3.44.1H32v6.24h3.35c2.97 0 3.361.011 3.44.1.082.09.09.963.09 8.66V96l10.136-.028c10.718-.029 11.858-.058 13.662-.35.205-.032.566-.09.802-.125.526-.081.594-.096 1.491-.33.394-.104.846-.22 1.004-.259.623-.153 2.499-.836 3.325-1.212 1.223-.555 2.959-1.527 3.785-2.12l.745-.533c.383-.274 1.867-1.493 2.04-1.675.045-.048.223-.216.396-.373.407-.372 1.848-1.972 2.18-2.422.141-.191.27-.362.288-.38.018-.018.186-.247.375-.51.786-1.092 1.765-2.718 2.147-3.565.07-.158.214-.445.319-.637.104-.193.323-.694.485-1.114.502-1.298.595-1.508.713-1.6.094-.072.634-.088 3.04-.089 1.61 0 2.985-.018 3.056-.04L89 78.6l-.027-2.11c-.036-2.805-.093-3.91-.205-3.99-.05-.034-1.012-.06-2.304-.06-1.984-.001-2.228-.013-2.313-.106a.234.234 0 01-.053-.24c.118-.383.178-3.16.11-5.088-.026-.737-.017-1.031.033-1.098.057-.077.424-.092 2.265-.092 1.92 0 2.207-.013 2.286-.1.08-.088.09-.45.09-3.02s-.01-2.932-.09-3.02c-.08-.089-.427-.1-2.955-.1H82.97l-.14-.157c-.078-.086-.142-.201-.142-.256 0-.055-.077-.27-.171-.479-.095-.208-.173-.415-.173-.46-.002-.135-1.19-2.72-1.502-3.265-.897-1.569-1.636-2.68-2.412-3.625-1.227-1.496-1.204-1.468-1.476-1.714-.11-.1-.368-.35-.573-.555-.88-.884-2.213-1.955-3.498-2.813-.706-.47-2.604-1.557-3.024-1.73-.2-.081-.333-.14-1.09-.478-1.035-.461-3.69-1.281-4.659-1.439-.142-.023-.4-.068-.573-.1-.816-.153-2.087-.305-3.211-.384-.573-.04-4.992-.077-11.196-.094L38.88 42v8.688zM60.9 47.72c1.2.163 1.475.202 1.663.235 1.275.223 3.602.948 4.505 1.403 2.163 1.09 3.329 1.845 4.612 2.986.236.21.443.398.459.417.016.019.17.163.343.32.4.365 1.045 1.08 1.377 1.529.142.192.316.414.387.495.336.381 1.296 1.88 1.805 2.815.574 1.057.728 1.531.527 1.617-.05.021-7.299.039-16.109.039-14.485 0-16.026-.01-16.108-.1-.08-.09-.09-.711-.09-5.886 0-5.19.01-5.796.09-5.886.083-.091.852-.099 8.072-.075 5.026.015 8.16.05 8.467.091zm17.418 18.15c.198.139.313 1.33.313 3.257.001 1.753-.129 3.13-.307 3.255-.044.03-7.6.055-16.976.056-15.285 0-16.905-.009-16.987-.1-.08-.088-.09-.467-.09-3.21 0-2.744.01-3.124.09-3.212.082-.09 1.702-.1 16.987-.099 9.294 0 16.93.024 16.97.052zm-1.704 12.908c.093.124.001.345-.614 1.484a21.5 21.5 0 01-1.592 2.492c-.453.621-1.95 2.281-2.499 2.773-1.257 1.124-2.696 2.08-4.496 2.987-.54.272-2.28.892-3.187 1.136-1.349.362-1.344.36-3.326.63-.307.042-3.441.076-8.468.091-7.22.024-7.988.016-8.07-.075-.082-.09-.091-.684-.091-5.759 0-5.059.01-5.669.09-5.758.082-.09 1.625-.1 16.135-.1 14.458 0 16.051.01 16.118.1z" fill="#fff"/>
  </g>
  <circle cx="96.5" cy="96.5" r="96.5" fill="url(#3_guni_dai_usdc_1_icon_e7f11f6d-2640-4c9b-9e5e-a87bf01b0078)"/>
  <path fill-rule="evenodd" clip-rule="evenodd" d="M133.479 88.39c0-1.162-.055-1.34-.571-1.855-.769-.766-.843-.756-4.271.563-2.53.974-6.404 3.649-8.927 6.163-2.507 2.498-5.218 6.392-6.161 8.847l-.739 1.925c-.323.838-.954 3.171-1.298 4.798-.157.741-.512 4.451-.512 5.351 0 1.028.367 4.638.583 5.74.344 1.756 1.775 5.758 2.669 7.469 2.841 5.432 8.418 10.815 13.667 13.19 3.42 1.548 4.189 1.711 4.999 1.057.398-.321.468-.575.529-1.917.069-1.512.056-1.564-.566-2.269-.623-.708-2.235-1.671-2.796-1.671-.155 0-1.33-.689-2.609-1.531-3.91-2.575-6.461-5.428-8.538-9.548-1.868-3.708-2.519-6.477-2.519-10.715 0-4.274.647-6.996 2.571-10.817 2.485-4.934 6.046-8.37 11.34-10.941 2.994-1.454 3.149-1.643 3.149-3.839zm25.033 2.388c-2.647-2.038-5.066-3.346-8.222-4.444-1.386-.483-1.507-.47-2.202.222-.573.571-.589.635-.521 2.12.054 1.192.156 1.628.46 1.963.214.237 1.489.98 2.833 1.652 5.331 2.664 8.678 5.941 11.219 10.982 1.868 3.707 2.519 6.477 2.519 10.714 0 3.918-.254 5.134-2.117 10.111-1.665 4.448-7.78 10.392-12.43 12.081-2.046.742-2.506 1.359-2.51 3.363-.003 1.211.047 1.379.568 1.897.868.865 1.374.778 4.989-.858 4.313-1.951 9.204-6.206 11.985-10.426 1.808-2.742 3.234-5.742 3.846-8.092 1.234-4.733 1.401-9.388.503-14.011-.339-1.745-1.77-5.753-2.667-7.468-1.826-3.49-5.094-7.375-8.253-9.806zm-15.275 6.466c-.085-1.614-.169-2.003-.506-2.338-.327-.326-.679-.41-1.85-.439-2.741-.068-2.98.125-3.064 2.465-.052 1.433-.064 2.008-.358 2.328-.205.224-.548.323-1.139.505-.69.213-1.599.562-2.02.775-1.115.568-3.081 2.635-3.701 3.893-.491.997-.537 1.28-.537 3.328 0 2.038.047 2.333.528 3.309 1.01 2.049 3.264 3.704 5.818 4.27a78.64 78.64 0 011.78.416c.388.097.936.177 1.218.177.55 0 1.739.254 3.427.73 1.68.475 3.143 2.011 3.143 3.301 0 .622-.636 2.468-1.001 2.907-.563.676-3.171 1.624-4.466 1.624-.666 0-2.347-.416-3.323-.823-.915-.382-1.882-1.512-2.154-2.519-.122-.45-.512-1.108-.867-1.462-.627-.624-.696-.644-2.243-.644-1.505 0-1.63.033-2.168.568-.314.313-.571.693-.571.844 0 .5.806 2.758 1.266 3.55 1.104 1.895 3.414 3.632 5.587 4.201.776.203 1.463.421 1.526.483.064.063.161.983.218 2.045.094 1.78.144 1.973.639 2.466.495.493.656.534 2.09.534 1.436 0 1.593-.04 2.093-.538.489-.488.545-.688.598-2.141.051-1.433.061-2.013.356-2.338.212-.234.572-.335 1.201-.529 1.58-.484 2.958-1.36 4.337-2.755 1.653-1.674 2.345-3.386 2.345-5.807 0-3.27-1.317-5.43-4.234-6.945-1.127-.586-1.837-.8-4.06-1.225a40.96 40.96 0 01-1.878-.405c-.388-.1-.96-.181-1.27-.181-.727 0-3.161-.878-3.646-1.316-.628-.567-.919-1.339-.919-2.44 0-1.739.969-2.825 2.987-3.346 1.298-.335 2.179-.369 2.988-.114.311.098.81.232 1.108.297.818.178 2.101 1.444 2.599 2.563.244.548.588 1.051.766 1.119.178.068 1.063.124 1.967.124 1.383 0 1.705-.062 2.034-.39.586-.584.498-1.637-.267-3.216a8.329 8.329 0 00-4.907-4.281c-.537-.178-1.065-.407-1.172-.51-.107-.1-.241-1.055-.298-2.12z" fill="#fff"/>
  <mask id="b" style="mask-type:alpha" maskUnits="userSpaceOnUse" x="-1" y="-1" width="146" height="182">
    <path d="M48.25 180.071A96.498 96.498 0 0171.524 3.288a96.5 96.5 0 0173.226 9.64L96.5 96.5l-48.25 83.571z" fill="#C4C4C4"/>
  </mask>
  <g mask="url(#b)">
    <circle cx="96.5" cy="96.5" r="96.5" transform="rotate(-180 96.5 96.5)" fill="url(#4_guni_dai_usdc_1_icon_e7f11f6d-2640-4c9b-9e5e-a87bf01b0078)"/>
    <path opacity=".9" fill-rule="evenodd" clip-rule="evenodd" d="M38.88 50.688c0 7.813-.008 8.698-.09 8.788-.079.088-.47.1-3.44.1H32v6.24h3.35c2.97 0 3.361.011 3.44.1.08.088.09.468.09 3.211 0 2.744-.01 3.123-.09 3.212-.079.088-.47.1-3.44.1H32v6.24h3.35c2.97 0 3.361.011 3.44.1.082.09.09.963.09 8.66V96l10.136-.028c10.718-.029 11.858-.058 13.662-.35.205-.032.566-.09.802-.125.526-.081.594-.096 1.491-.33.394-.104.846-.22 1.004-.259.623-.153 2.499-.836 3.325-1.212 1.223-.555 2.959-1.527 3.785-2.12l.745-.533c.383-.274 1.867-1.493 2.04-1.675.045-.048.223-.216.396-.373.407-.372 1.848-1.972 2.18-2.422.141-.191.27-.362.288-.38.018-.018.186-.247.375-.51.786-1.092 1.765-2.718 2.147-3.565.07-.158.214-.445.319-.637.104-.193.323-.694.485-1.114.502-1.298.595-1.508.713-1.6.094-.072.634-.088 3.04-.089 1.61 0 2.985-.018 3.056-.04L89 78.6l-.027-2.11c-.036-2.805-.093-3.91-.205-3.99-.05-.034-1.012-.06-2.304-.06-1.984-.001-2.228-.013-2.313-.106a.234.234 0 01-.053-.24c.118-.383.178-3.16.11-5.088-.026-.737-.017-1.031.033-1.098.057-.077.424-.092 2.265-.092 1.92 0 2.207-.013 2.286-.1.08-.088.09-.45.09-3.02s-.01-2.932-.09-3.02c-.08-.089-.427-.1-2.955-.1H82.97l-.14-.157c-.078-.086-.142-.201-.142-.256 0-.055-.077-.27-.171-.479-.095-.208-.173-.415-.173-.46-.002-.135-1.19-2.72-1.502-3.265-.897-1.569-1.636-2.68-2.412-3.625-1.227-1.496-1.204-1.468-1.476-1.714-.11-.1-.368-.35-.573-.555-.88-.884-2.213-1.955-3.498-2.813-.706-.47-2.604-1.557-3.024-1.73-.2-.081-.333-.14-1.09-.478-1.035-.461-3.69-1.281-4.659-1.439-.142-.023-.4-.068-.573-.1-.816-.153-2.087-.305-3.211-.384-.573-.04-4.992-.077-11.196-.094L38.88 42v8.688zM60.9 47.72c1.2.163 1.475.202 1.663.235 1.275.223 3.602.948 4.505 1.403 2.163 1.09 3.329 1.845 4.612 2.986.236.21.443.398.459.417.016.019.17.163.343.32.4.365 1.045 1.08 1.377 1.529.142.192.316.414.387.495.336.381 1.296 1.88 1.805 2.815.574 1.057.728 1.531.527 1.617-.05.021-7.299.039-16.109.039-14.485 0-16.026-.01-16.108-.1-.08-.09-.09-.711-.09-5.886 0-5.19.01-5.796.09-5.886.083-.091.852-.099 8.072-.075 5.026.015 8.16.05 8.467.091zm17.418 18.15c.198.139.313 1.33.313 3.257.001 1.753-.129 3.13-.307 3.255-.044.03-7.6.055-16.976.056-15.285 0-16.905-.009-16.987-.1-.08-.088-.09-.467-.09-3.21 0-2.744.01-3.124.09-3.212.082-.09 1.702-.1 16.987-.099 9.294 0 16.93.024 16.97.052zm-1.704 12.908c.093.124.001.345-.614 1.484a21.5 21.5 0 01-1.592 2.492c-.453.621-1.95 2.281-2.499 2.773-1.257 1.124-2.696 2.08-4.496 2.987-.54.272-2.28.892-3.187 1.136-1.349.362-1.344.36-3.326.63-.307.042-3.441.076-8.468.091-7.22.024-7.988.016-8.07-.075-.082-.09-.091-.684-.091-5.759 0-5.059.01-5.669.09-5.758.082-.09 1.625-.1 16.135-.1 14.458 0 16.051.01 16.118.1z" fill="#fff"/>
  </g>
  <defs>
    <linearGradient id="1_guni_dai_usdc_1_icon_e7f11f6d-2640-4c9b-9e5e-a87bf01b0078" x1="193" y1="2.463" x2="193" y2="193" gradientUnits="userSpaceOnUse">
      <stop stop-color="#697DBC"/>
      <stop offset="1" stop-color="#49589B"/>
    </linearGradient>
    <linearGradient id="2_guni_dai_usdc_1_icon_e7f11f6d-2640-4c9b-9e5e-a87bf01b0078" x1="193" y1="2.463" x2="193" y2="193" gradientUnits="userSpaceOnUse">
      <stop stop-color="#E3A92F"/>
      <stop offset="1" stop-color="#E3BB60"/>
    </linearGradient>
    <linearGradient id="3_guni_dai_usdc_1_icon_e7f11f6d-2640-4c9b-9e5e-a87bf01b0078" x1="193" y1="2.463" x2="193" y2="193" gradientUnits="userSpaceOnUse">
      <stop stop-color="#368CD1"/>
      <stop offset="1" stop-color="#294C73"/>
    </linearGradient>
    <linearGradient id="4_guni_dai_usdc_1_icon_e7f11f6d-2640-4c9b-9e5e-a87bf01b0078" x1="193" y1="2.463" x2="193" y2="193" gradientUnits="userSpaceOnUse">
      <stop stop-color="#E3A92F"/>
      <stop offset="1" stop-color="#E3BB60"/>
    </linearGradient>
  </defs>
</svg>
